<svg xmlns="http://www.w3.org/2000/svg" xmlns:xlink="http://www.w3.org/1999/xlink" id="Layer_1" x="0px" y="0px" viewBox="0 0 1358.8 1064.1" style="enable-background:new 0 0 1358.8 1064.1;" xml:space="preserve"><style type="text/css">	.st0{fill:url(#SVGID_1_);}	.st1{fill:#FFFFFF;}</style><g>			<linearGradient id="SVGID_1_" gradientUnits="userSpaceOnUse" x1="-837.1677" y1="1352.3368" x2="1455.0209" y2="-428.3182" gradientTransform="matrix(1 0 0 -1 0 1065.3228)">		<stop offset="0.1435" style="stop-color:#9C563D"></stop>		<stop offset="0.2804" style="stop-color:#9C563D"></stop>		<stop offset="0.8651" style="stop-color:#CF7E57"></stop>	</linearGradient>	<path class="st0" d="M481.7,531c-2.3-2.4-3.9-4.1-5.5-5.7c-65.9-66-131.9-132-197.8-197.9c-54.5-54.6-109.1-109.2-163.6-163.8  C86.3,135.1,57.9,106.5,29.4,78c-1.3-1.3-2.7-2.6-3.9-4c-8.9-10.5-10.8-22.4-5.3-34.8c5.4-12.3,15.5-18.4,28.9-19  c1.4-0.1,2.8,0,4.2,0c110.3,0,220.6,0,331,0c3.9,0,7.8,0.5,11.6,1.1c5.4,0.9,9.9,3.7,13.8,7.4c1.7,1.5,3.3,3.2,4.9,4.9  c156.4,156.3,312.7,312.7,469,469c1.5,1.5,2.9,3,4.4,4.4c12.7,12.2,12.8,33.1,0.8,45.5c-1.8,1.8-3.5,3.7-5.3,5.5  c-157.2,157.2-314.3,314.3-471.5,471.5c-2.3,2.3-4.5,4.6-7,6.7c-5.8,4.9-12.5,7.7-20.2,7.7c-1.8,0-3.7,0-5.5,0  c-109.4,0-218.8,0-328.2,0c-4.1,0-8.4,0.1-12.3-0.9c-24.8-6.2-31.5-35.6-16.2-52.7c1.8-2.1,3.8-4,5.8-5.9  C177.3,835.4,326.2,686.6,475,537.7C477.1,535.7,479.2,533.5,481.7,531z M818.9,530c-3.1-4.3-439-440.4-445.2-445.3  c-80.2,0-160.8,0-241.4,0c-0.9,0-1.7,0.3-2.8,0.5c0.4,2.8,2.4,4.1,3.9,5.7c9.4,9.5,18.8,19,28.2,28.4  c48.8,48.9,97.7,97.8,146.5,146.6c79.4,79.5,158.9,159,238.3,238.5c1,1,2,2,2.9,2.9c0.8,0.8,1.6,1.6,2.3,2.5  c10.7,12.6,10.4,30.7-0.8,42.9c-2,2.2-4.2,4.3-6.3,6.4C407.6,696.3,270.5,833.4,133.4,970.6c-1.6,1.6-3.3,3.2-4.9,4.9  c-0.8,0.9-1.5,2-2.6,3.6c82.1,0,163.3,0,243.9,0C519.6,829.3,669.1,679.8,818.9,530z"></path>	<path class="st1" d="M931.2,596.3c1.4,1.3,3,2.6,4.4,4.1c37.7,37.2,75.5,74.3,113.1,111.6c42.6,42.1,85.2,84.1,127.5,126.5  c49.9,50,99,100.9,147.1,152.7c5.3,5.7,10.9,11.2,16.3,16.9c1.4,1.4,2.7,2.9,4.7,5c-3.1,0.8-5.6,0.5-8,0.5c-38.2,0-76.4,0-114.7,0  c-41.7,0-83.4,0.1-125,0.3c-19.8,0.1-39.6,0.6-59.4,0.8c-4.8,0-9.7-0.3-14.5-0.8c-9.6-1-18.2-4.8-25.8-10.7  c-3.8-3-7.4-6.2-10.8-9.7C930.9,938.3,875.7,883.1,820.5,828c-18.4-18.4-36.8-36.7-55.3-55.1c-1.8-1.8-3.5-3.6-5.3-5.3  C763.6,762.6,925.9,600.2,931.2,596.3z"></path>	<path class="st1" d="M1003.9,52.5c112.9,0,224.9,0,337.3,0c-0.4,1.5-0.3,3-1,3.9c-3.1,4-6.1,8.1-9.7,11.6  c-6.9,7.1-14.3,13.7-21.3,20.7c-40,39.8-79.9,79.7-119.9,119.5c-39.2,39-78.5,77.9-117.7,116.8c-41,40.7-82,81.5-123.1,122.2  c-5.7,5.6-11.5,11.2-16.9,16.5c-0.9,0-1.1,0.1-1.3,0c-0.2,0-0.5-0.1-0.6-0.3C874.9,408.6,819.9,353.8,765,299  c-0.8-0.8-1.5-1.7-2.6-2.9c1.3-1.4,2.4-2.8,3.7-4c56.2-55.9,112.3-111.8,168.5-167.6c14.9-14.8,29.7-29.5,44.6-44.3  c2.3-2.3,4.6-4.6,7-6.7C993,67.3,1000.1,61.3,1003.9,52.5z"></path></g></svg>